<svg xmlns="http://www.w3.org/2000/svg" xmlns:xlink="http://www.w3.org/1999/xlink" width="160" zoomAndPan="magnify" viewBox="0 0 276 113.999999" height="60" preserveAspectRatio="xMidYMid meet" version="1.0"><defs><g/><clipPath id="06893ef9a5"><path d="M 25.496094 0 L 110.996094 0 L 110.996094 113.25 L 25.496094 113.25 Z M 25.496094 0 " clip-rule="nonzero"/></clipPath></defs><path fill="#9b9b9b" d="M 109.945312 57.332031 L 109.945312 91.261719 C 109.945312 103.160156 100.300781 112.804688 88.402344 112.804688 C 88.402344 112.804688 71.589844 112.804688 71.589844 112.804688 C 60.59375 112.804688 54.707031 104.75 48.460938 96.964844 C 40.859375 87.492188 33.847656 77.570312 26.480469 67.917969 C 33.390625 62.644531 43.265625 63.972656 48.539062 70.882812 L 50.046875 72.851562 L 50.046875 24.644531 C 50.046875 22.019531 52.171875 19.890625 54.800781 19.890625 L 60.265625 19.890625 C 62.894531 19.890625 65.019531 22.019531 65.019531 24.644531 L 65.019531 45.054688 C 65.03125 42.4375 67.15625 40.316406 69.777344 40.316406 L 75.242188 40.316406 C 77.867188 40.316406 79.996094 42.445312 79.996094 45.070312 L 79.996094 51.835938 C 79.996094 49.210938 82.125 47.082031 84.75 47.082031 L 90.214844 47.082031 C 92.84375 47.082031 94.972656 49.210938 94.972656 51.835938 L 94.972656 57.332031 C 94.972656 54.707031 97.101562 52.578125 99.726562 52.578125 L 105.191406 52.578125 C 107.816406 52.578125 109.945312 54.707031 109.945312 57.332031 Z M 109.945312 57.332031 " fill-opacity="1" fill-rule="nonzero"/><g clip-path="url(#06893ef9a5)"><path fill="#f4f6fc" d="M 56.652344 8.398438 L 56.652344 0.792969 C 56.652344 0.355469 57.007812 0 57.449219 0 C 57.886719 0 58.242188 0.355469 58.242188 0.792969 L 58.242188 8.398438 C 58.242188 8.839844 57.886719 9.195312 57.449219 9.195312 C 57.007812 9.195312 56.652344 8.839844 56.652344 8.398438 Z M 68.628906 13.824219 C 68.832031 13.824219 69.035156 13.75 69.191406 13.59375 L 74.570312 8.214844 C 74.882812 7.90625 74.882812 7.402344 74.570312 7.089844 C 74.261719 6.78125 73.757812 6.78125 73.445312 7.089844 L 68.066406 12.46875 C 67.757812 12.777344 67.757812 13.28125 68.066406 13.59375 C 68.222656 13.75 68.425781 13.824219 68.628906 13.824219 Z M 72.46875 24.210938 C 72.46875 24.652344 72.824219 25.007812 73.261719 25.007812 L 80.867188 25.007812 C 81.308594 25.007812 81.664062 24.652344 81.664062 24.210938 C 81.664062 23.773438 81.308594 23.417969 80.867188 23.417969 L 73.261719 23.417969 C 72.824219 23.417969 72.46875 23.773438 72.46875 24.210938 Z M 34.027344 25.007812 L 41.632812 25.007812 C 42.074219 25.007812 42.429688 24.652344 42.429688 24.210938 C 42.429688 23.773438 42.074219 23.417969 41.632812 23.417969 L 34.027344 23.417969 C 33.589844 23.417969 33.234375 23.773438 33.234375 24.210938 C 33.234375 24.652344 33.589844 25.007812 34.027344 25.007812 Z M 45.703125 13.59375 C 45.859375 13.75 46.0625 13.824219 46.265625 13.824219 C 46.46875 13.824219 46.671875 13.75 46.828125 13.59375 C 47.140625 13.28125 47.140625 12.777344 46.828125 12.46875 L 41.449219 7.089844 C 41.140625 6.78125 40.636719 6.78125 40.324219 7.089844 C 40.015625 7.402344 40.015625 7.90625 40.324219 8.214844 Z M 110.742188 57.332031 L 110.742188 91.261719 C 110.742188 103.578125 100.71875 113.597656 88.402344 113.597656 L 71.589844 113.597656 C 60.730469 113.597656 54.628906 105.957031 48.726562 98.566406 C 48.429688 98.199219 48.136719 97.832031 47.839844 97.460938 C 43.082031 91.53125 38.480469 85.324219 34.03125 79.324219 C 31.363281 75.730469 28.609375 72.015625 25.847656 68.398438 C 25.582031 68.050781 25.648438 67.550781 26 67.285156 C 29.507812 64.605469 33.855469 63.453125 38.230469 64.042969 C 42.609375 64.628906 46.492188 66.886719 49.171875 70.398438 L 49.25 70.5 L 49.25 24.644531 C 49.25 21.582031 51.738281 19.09375 54.800781 19.09375 L 60.265625 19.09375 C 63.328125 19.09375 65.816406 21.582031 65.816406 24.644531 L 65.816406 41.1875 C 66.824219 40.160156 68.226562 39.519531 69.777344 39.519531 L 75.242188 39.519531 C 78.300781 39.519531 80.789062 42.011719 80.789062 45.070312 L 80.789062 47.949219 C 81.796875 46.921875 83.203125 46.285156 84.75 46.285156 L 90.214844 46.285156 C 93.277344 46.285156 95.765625 48.773438 95.765625 51.835938 L 95.765625 53.449219 C 96.773438 52.421875 98.175781 51.78125 99.726562 51.78125 L 105.191406 51.78125 C 108.25 51.78125 110.742188 54.273438 110.742188 57.332031 Z M 109.152344 57.332031 C 109.152344 55.148438 107.375 53.371094 105.191406 53.371094 L 99.726562 53.371094 C 97.542969 53.371094 95.765625 55.148438 95.765625 57.332031 L 95.765625 68.714844 C 95.765625 69.152344 95.410156 69.507812 94.972656 69.507812 C 94.53125 69.507812 94.175781 69.152344 94.175781 68.714844 L 94.175781 51.835938 C 94.175781 49.652344 92.398438 47.875 90.214844 47.875 L 84.75 47.875 C 82.566406 47.875 80.789062 49.652344 80.789062 51.835938 L 80.789062 65.488281 C 80.789062 65.929688 80.433594 66.285156 79.996094 66.285156 C 79.558594 66.285156 79.199219 65.929688 79.199219 65.488281 L 79.199219 45.070312 C 79.199219 42.886719 77.425781 41.113281 75.242188 41.113281 L 69.777344 41.113281 C 67.601562 41.113281 65.824219 42.882812 65.816406 45.058594 L 65.816406 62.648438 C 65.816406 63.089844 65.460938 63.445312 65.019531 63.445312 C 64.582031 63.445312 64.226562 63.089844 64.226562 62.648438 L 64.226562 24.644531 C 64.226562 22.460938 62.449219 20.683594 60.265625 20.683594 L 54.800781 20.683594 C 52.617188 20.683594 50.839844 22.460938 50.839844 24.644531 L 50.839844 72.851562 C 50.839844 73.191406 50.621094 73.496094 50.300781 73.605469 C 49.976562 73.714844 49.621094 73.605469 49.414062 73.335938 L 47.910156 71.363281 C 45.488281 68.191406 41.976562 66.148438 38.019531 65.617188 C 34.324219 65.121094 30.660156 65.996094 27.605469 68.082031 C 30.207031 71.5 32.796875 74.992188 35.304688 78.378906 C 39.746094 84.367188 44.339844 90.558594 49.082031 96.46875 C 49.378906 96.835938 49.671875 97.207031 49.96875 97.574219 C 55.898438 105 61.496094 112.007812 71.589844 112.007812 L 88.402344 112.007812 C 99.84375 112.007812 109.152344 102.699219 109.152344 91.261719 Z M 109.152344 57.332031 " fill-opacity="1" fill-rule="nonzero"/></g><g fill="#ffffff" fill-opacity="1"><g transform="translate(56.857967, 82.299965)"><g><path d="M 14.796875 -23.40625 L 16.953125 -23.40625 L 16.953125 0 L 14.796875 0 L 14.796875 -10.984375 L 4.375 -10.984375 L 4.375 0 L 2.21875 0 L 2.21875 -23.40625 L 4.375 -23.40625 L 4.375 -12.90625 L 14.796875 -12.90625 Z M 14.796875 -23.40625 "/></g></g></g><g fill="#ffffff" fill-opacity="1"><g transform="translate(77.827953, 82.299965)"><g><path d="M 7.625 -23.640625 L 10.703125 -23.640625 L 17.453125 0 L 15.125 0 L 13.4375 -6 L 4.890625 -6 L 3.203125 0 L 0.875 0 Z M 9.15625 -21.265625 L 5.4375 -7.953125 L 12.875 -7.953125 Z M 9.15625 -21.265625 "/></g></g></g><g fill="#ffffff" fill-opacity="1"><g transform="translate(97.957931, 82.299965)"><g><path d="M 17.546875 -23.40625 L 17.546875 0 L 15.203125 0 L 4.140625 -19.734375 L 4.265625 -14.3125 L 4.265625 0 L 2.21875 0 L 2.21875 -23.40625 L 4.5625 -23.40625 L 15.59375 -3.65625 L 15.515625 -9.09375 L 15.515625 -23.40625 Z M 17.546875 -23.40625 "/></g></g></g><g fill="#ffffff" fill-opacity="1"><g transform="translate(119.527906, 82.299965)"><g><path d="M 17.453125 -11.09375 C 17.453125 -8.394531 17.09375 -6.234375 16.375 -4.609375 C 15.65625 -2.992188 14.617188 -1.820312 13.265625 -1.09375 C 11.921875 -0.363281 10.300781 0 8.40625 0 L 2.21875 0 L 2.21875 -23.40625 L 8.40625 -23.40625 C 10.300781 -23.40625 11.921875 -23.039062 13.265625 -22.3125 C 14.617188 -21.59375 15.65625 -20.414062 16.375 -18.78125 C 17.09375 -17.15625 17.453125 -14.992188 17.453125 -12.296875 Z M 4.375 -1.953125 L 8.21875 -1.953125 C 9.71875 -1.953125 10.992188 -2.25 12.046875 -2.84375 C 13.097656 -3.445312 13.890625 -4.414062 14.421875 -5.75 C 14.960938 -7.09375 15.234375 -8.875 15.234375 -11.09375 L 15.234375 -12.296875 C 15.234375 -14.515625 14.960938 -16.296875 14.421875 -17.640625 C 13.890625 -18.984375 13.097656 -19.953125 12.046875 -20.546875 C 10.992188 -21.148438 9.71875 -21.453125 8.21875 -21.453125 L 4.375 -21.453125 Z M 4.375 -1.953125 "/></g></g></g><g fill="#ffffff" fill-opacity="1"><g transform="translate(140.497892, 82.299965)"><g><path d="M 9.75 -7.078125 L 9.75 0 L 7.59375 0 L 7.59375 -7.078125 L 0.625 -23.40625 L 2.96875 -23.40625 L 8.671875 -9.75 L 14.34375 -23.40625 L 16.703125 -23.40625 Z M 9.75 -7.078125 "/></g></g></g><g fill="#ffffff" fill-opacity="1"><g transform="translate(159.607871, 82.299965)"><g><path d="M 14.796875 -23.40625 L 16.953125 -23.40625 L 16.953125 0 L 14.796875 0 L 14.796875 -10.984375 L 4.375 -10.984375 L 4.375 0 L 2.21875 0 L 2.21875 -23.40625 L 4.375 -23.40625 L 4.375 -12.90625 L 14.796875 -12.90625 Z M 14.796875 -23.40625 "/></g></g></g><g fill="#ffffff" fill-opacity="1"><g transform="translate(180.577852, 82.299965)"><g><path d="M 9.5625 0.328125 C 7.90625 0.328125 6.519531 0.0859375 5.40625 -0.390625 C 4.300781 -0.867188 3.46875 -1.660156 2.90625 -2.765625 C 2.34375 -3.878906 2.0625 -5.378906 2.0625 -7.265625 L 2.0625 -23.40625 L 4.234375 -23.40625 L 4.234375 -7.40625 C 4.234375 -5.925781 4.425781 -4.765625 4.8125 -3.921875 C 5.207031 -3.085938 5.796875 -2.492188 6.578125 -2.140625 C 7.367188 -1.796875 8.363281 -1.625 9.5625 -1.625 C 10.769531 -1.625 11.769531 -1.796875 12.5625 -2.140625 C 13.363281 -2.492188 13.957031 -3.085938 14.34375 -3.921875 C 14.738281 -4.765625 14.9375 -5.925781 14.9375 -7.40625 L 14.9375 -23.40625 L 17.09375 -23.40625 L 17.09375 -7.265625 C 17.09375 -5.378906 16.8125 -3.878906 16.25 -2.765625 C 15.695312 -1.660156 14.859375 -0.867188 13.734375 -0.390625 C 12.617188 0.0859375 11.226562 0.328125 9.5625 0.328125 Z M 9.5625 0.328125 "/></g></g></g><g fill="#ffffff" fill-opacity="1"><g transform="translate(201.547833, 82.299965)"><g><path d="M 2.21875 -23.40625 L 8.15625 -23.40625 C 9.457031 -23.40625 10.644531 -23.207031 11.71875 -22.8125 C 12.800781 -22.425781 13.660156 -21.800781 14.296875 -20.9375 C 14.941406 -20.082031 15.265625 -18.941406 15.265625 -17.515625 L 15.265625 -16.921875 C 15.265625 -15.597656 14.9375 -14.550781 14.28125 -13.78125 C 13.632812 -13.007812 12.804688 -12.445312 11.796875 -12.09375 C 12.972656 -11.726562 13.945312 -11.125 14.71875 -10.28125 C 15.488281 -9.445312 15.875 -8.28125 15.875 -6.78125 L 15.875 -6.1875 C 15.875 -4.695312 15.539062 -3.5 14.875 -2.59375 C 14.21875 -1.6875 13.34375 -1.023438 12.25 -0.609375 C 11.164062 -0.203125 9.960938 0 8.640625 0 L 2.21875 0 Z M 8.796875 -11.046875 L 4.375 -11.046875 L 4.375 -1.953125 L 8.796875 -1.953125 C 9.671875 -1.953125 10.476562 -2.097656 11.21875 -2.390625 C 11.957031 -2.691406 12.546875 -3.15625 12.984375 -3.78125 C 13.429688 -4.414062 13.65625 -5.242188 13.65625 -6.265625 L 13.65625 -6.71875 C 13.65625 -7.738281 13.429688 -8.566406 12.984375 -9.203125 C 12.546875 -9.847656 11.957031 -10.316406 11.21875 -10.609375 C 10.476562 -10.898438 9.671875 -11.046875 8.796875 -11.046875 Z M 8.25 -21.453125 L 4.375 -21.453125 L 4.375 -12.984375 L 8.25 -12.984375 C 9.125 -12.984375 9.921875 -13.113281 10.640625 -13.375 C 11.367188 -13.632812 11.953125 -14.0625 12.390625 -14.65625 C 12.828125 -15.25 13.046875 -16.023438 13.046875 -16.984375 L 13.046875 -17.453125 C 13.046875 -18.441406 12.828125 -19.222656 12.390625 -19.796875 C 11.953125 -20.378906 11.367188 -20.800781 10.640625 -21.0625 C 9.921875 -21.320312 9.125 -21.453125 8.25 -21.453125 Z M 8.25 -21.453125 "/></g></g></g></svg>