<svg xmlns="http://www.w3.org/2000/svg" xmlns:xlink="http://www.w3.org/1999/xlink" width="500" zoomAndPan="magnify" viewBox="0 0 375 374.999991" height="500" preserveAspectRatio="xMidYMid meet" version="1.0"><defs><clipPath id="5272690010"><path d="M 46.703125 61 L 327.953125 61 L 327.953125 374 L 46.703125 374 Z M 46.703125 61 " clip-rule="nonzero"/></clipPath><clipPath id="024b657f62"><path d="M 40.804688 -4.839844 L 328.046875 -7.347656 L 331.382812 375.136719 L 44.144531 377.644531 Z M 40.804688 -4.839844 " clip-rule="nonzero"/></clipPath><clipPath id="a14ab07114"><path d="M 46.703125 0 L 327.953125 0 L 327.953125 375 L 46.703125 375 Z M 46.703125 0 " clip-rule="nonzero"/></clipPath><clipPath id="f3625abd2a"><path d="M 40.804688 -4.839844 L 328.046875 -7.347656 L 331.382812 375.136719 L 44.144531 377.644531 Z M 40.804688 -4.839844 " clip-rule="nonzero"/></clipPath></defs><g clip-path="url(#5272690010)"><g clip-path="url(#024b657f62)"><path fill="#9b9b9b" d="M 326.832031 185.722656 L 327.277344 236.609375 L 327.535156 266.273438 L 327.828125 299.960938 C 328.179688 340.027344 295.984375 372.789062 255.917969 373.140625 C 255.917969 373.140625 199.308594 373.632812 199.308594 373.632812 C 162.285156 373.957031 142.226562 347.007812 120.96875 320.980469 C 95.097656 289.304688 71.1875 256.101562 46.101562 223.816406 C 69.214844 205.859375 102.511719 210.035156 120.46875 233.148438 L 125.589844 239.742188 L 125.578125 238.371094 L 124.175781 77.417969 C 124.097656 68.574219 131.203125 61.34375 140.042969 61.265625 L 158.453125 61.105469 C 167.296875 61.03125 174.523438 68.132812 174.601562 76.976562 L 175.0625 129.75 L 175.203125 145.707031 C 175.15625 136.886719 182.246094 129.6875 191.070312 129.609375 L 209.472656 129.449219 C 218.316406 129.371094 225.546875 136.476562 225.625 145.320312 L 225.824219 168.09375 C 225.746094 159.253906 232.851562 152.019531 241.695312 151.945312 L 260.09375 151.78125 C 268.9375 151.707031 276.167969 158.8125 276.246094 167.65625 L 276.410156 186.164062 C 276.332031 177.320312 283.4375 170.089844 292.28125 170.011719 L 310.679688 169.851562 C 319.523438 169.773438 326.753906 176.878906 326.832031 185.722656 Z M 326.832031 185.722656 " fill-opacity="1" fill-rule="nonzero"/></g></g><g clip-path="url(#a14ab07114)"><g clip-path="url(#f3625abd2a)"><path fill="#f4f6fc" d="M 145.949219 22.523438 L 145.726562 -3.085938 C 145.710938 -4.5625 146.898438 -5.773438 148.378906 -5.785156 C 149.855469 -5.796875 151.066406 -4.609375 151.078125 -3.132812 L 151.300781 22.476562 C 151.316406 23.957031 150.128906 25.164062 148.648438 25.179688 C 147.171875 25.191406 145.960938 24.003906 145.949219 22.523438 Z M 186.4375 40.445312 C 187.121094 40.4375 187.804688 40.171875 188.320312 39.644531 L 206.273438 21.378906 C 207.308594 20.324219 207.296875 18.628906 206.242188 17.59375 C 205.183594 16.554688 203.492188 16.570312 202.457031 17.625 L 184.503906 35.890625 C 183.46875 36.945312 183.480469 38.640625 184.535156 39.675781 C 185.0625 40.195312 185.75 40.453125 186.4375 40.445312 Z M 199.660156 75.308594 C 199.671875 76.785156 200.882812 77.972656 202.359375 77.960938 L 227.96875 77.738281 C 229.449219 77.722656 230.636719 76.515625 230.625 75.035156 C 230.609375 73.558594 229.402344 72.371094 227.921875 72.382812 L 202.3125 72.605469 C 200.835938 72.621094 199.648438 73.828125 199.660156 75.308594 Z M 70.257812 79.113281 L 95.867188 78.890625 C 97.34375 78.875 98.53125 77.667969 98.519531 76.191406 C 98.507812 74.710938 97.296875 73.523438 95.820312 73.535156 L 70.210938 73.757812 C 68.730469 73.773438 67.542969 74.980469 67.558594 76.460938 C 67.570312 77.9375 68.777344 79.125 70.257812 79.113281 Z M 109.234375 40.335938 C 109.761719 40.851562 110.449219 41.109375 111.132812 41.101562 C 111.820312 41.097656 112.5 40.828125 113.019531 40.300781 C 114.054688 39.246094 114.042969 37.554688 112.988281 36.515625 L 94.71875 18.566406 C 93.664062 17.53125 91.96875 17.542969 90.933594 18.597656 C 89.898438 19.652344 89.914062 21.347656 90.96875 22.382812 Z M 329.507812 185.699219 L 330.507812 299.9375 C 330.867188 341.414062 297.417969 375.453125 255.941406 375.816406 L 199.332031 376.308594 C 162.773438 376.628906 141.996094 351.078125 121.902344 326.371094 C 120.902344 325.136719 119.898438 323.902344 118.894531 322.671875 C 102.691406 302.835938 87.015625 282.082031 71.855469 262.007812 C 62.773438 249.984375 53.382812 237.550781 43.988281 225.460938 C 43.082031 224.292969 43.292969 222.609375 44.460938 221.703125 C 56.203125 212.578125 70.796875 208.570312 85.550781 210.425781 C 100.308594 212.277344 113.457031 219.761719 122.582031 231.507812 L 122.847656 231.84375 L 121.5 77.441406 C 121.410156 67.136719 129.71875 58.679688 140.019531 58.589844 L 158.429688 58.429688 C 168.734375 58.339844 177.1875 66.648438 177.277344 76.953125 L 177.667969 121.613281 L 177.765625 132.664062 C 181.128906 129.171875 185.835938 126.976562 191.050781 126.933594 L 209.449219 126.773438 C 219.753906 126.683594 228.210938 134.992188 228.300781 145.296875 L 228.386719 154.992188 C 231.75 151.5 236.453125 149.3125 241.671875 149.265625 L 260.070312 149.105469 C 270.378906 149.015625 278.832031 157.328125 278.921875 167.632812 L 278.972656 173.058594 C 282.335938 169.570312 287.039062 167.382812 292.257812 167.335938 L 310.65625 167.175781 C 320.960938 167.085938 329.417969 175.394531 329.507812 185.699219 Z M 324.15625 185.746094 C 324.089844 178.394531 318.058594 172.464844 310.703125 172.527344 L 292.304688 172.6875 C 284.953125 172.753906 279.019531 178.789062 279.085938 186.140625 L 279.417969 224.464844 C 279.433594 225.941406 278.246094 227.152344 276.765625 227.164062 C 275.289062 227.175781 274.078125 225.988281 274.066406 224.511719 L 273.730469 186.1875 L 273.710938 183.671875 L 273.570312 167.679688 C 273.507812 160.324219 267.472656 154.394531 260.117188 154.460938 L 241.71875 154.621094 C 234.367188 154.683594 228.433594 160.71875 228.5 168.070312 L 228.902344 214.046875 C 228.914062 215.527344 227.726562 216.734375 226.246094 216.75 C 224.769531 216.761719 223.558594 215.574219 223.546875 214.09375 L 223.144531 168.117188 L 223.113281 164.210938 L 222.945312 145.34375 C 222.882812 137.992188 216.847656 132.0625 209.496094 132.125 L 191.09375 132.285156 C 183.769531 132.351562 177.839844 138.363281 177.878906 145.691406 L 178.394531 204.925781 C 178.410156 206.402344 177.222656 207.613281 175.742188 207.625 C 174.265625 207.636719 173.054688 206.449219 173.042969 204.972656 L 172.523438 145.730469 L 172.316406 121.660156 L 171.925781 77 C 171.859375 69.648438 165.828125 63.71875 158.476562 63.785156 L 140.066406 63.945312 C 132.714844 64.007812 126.789062 70.042969 126.851562 77.394531 L 128.269531 239.71875 C 128.277344 240.867188 127.554688 241.894531 126.472656 242.269531 C 125.386719 242.648438 124.183594 242.292969 123.476562 241.382812 L 118.355469 234.792969 C 110.109375 224.179688 98.222656 217.410156 84.886719 215.738281 C 72.433594 214.171875 60.117188 217.226562 49.898438 224.34375 C 58.753906 235.777344 67.578125 247.460938 76.128906 258.78125 C 91.257812 278.8125 106.902344 299.527344 123.039062 319.285156 C 124.046875 320.519531 125.054688 321.757812 126.058594 322.992188 C 146.242188 347.808594 165.304688 371.253906 199.285156 370.957031 L 255.894531 370.460938 C 294.421875 370.125 325.488281 338.511719 325.152344 299.984375 Z M 324.15625 185.746094 " fill-opacity="1" fill-rule="nonzero"/></g></g></svg>