<svg xmlns="http://www.w3.org/2000/svg" xmlns:xlink="http://www.w3.org/1999/xlink" width="341" zoomAndPan="magnify" viewBox="0 0 255.75 66.75" height="89" preserveAspectRatio="xMidYMid meet" version="1.0"><defs><g/></defs><g fill="#000000" fill-opacity="1"><g transform="translate(89.053894, 34.97297)"><g><path d="M 19.640625 -9.796875 C 19.640625 -6.671875 18.847656 -4.210938 17.265625 -2.421875 C 15.679688 -0.628906 13.484375 0.265625 10.671875 0.265625 C 7.796875 0.265625 5.578125 -0.613281 4.015625 -2.375 C 2.453125 -4.132812 1.671875 -6.613281 1.671875 -9.8125 C 1.671875 -13 2.453125 -15.46875 4.015625 -17.21875 C 5.585938 -18.96875 7.816406 -19.84375 10.703125 -19.84375 C 13.503906 -19.84375 15.691406 -18.953125 17.265625 -17.171875 C 18.847656 -15.390625 19.640625 -12.929688 19.640625 -9.796875 Z M 4.078125 -9.796875 C 4.078125 -7.148438 4.640625 -5.140625 5.765625 -3.765625 C 6.890625 -2.398438 8.523438 -1.71875 10.671875 -1.71875 C 12.835938 -1.71875 14.472656 -2.398438 15.578125 -3.765625 C 16.679688 -5.128906 17.234375 -7.140625 17.234375 -9.796875 C 17.234375 -12.421875 16.679688 -14.410156 15.578125 -15.765625 C 14.484375 -17.128906 12.859375 -17.8125 10.703125 -17.8125 C 8.535156 -17.8125 6.890625 -17.125 5.765625 -15.75 C 4.640625 -14.382812 4.078125 -12.398438 4.078125 -9.796875 Z M 4.078125 -9.796875 "/></g></g></g><g fill="#000000" fill-opacity="1"><g transform="translate(119.688829, 34.97297)"><g><path d="M 17.4375 -19.53125 L 17.4375 -6.890625 C 17.4375 -4.660156 16.765625 -2.910156 15.421875 -1.640625 C 14.078125 -0.367188 12.226562 0.265625 9.875 0.265625 C 7.519531 0.265625 5.695312 -0.375 4.40625 -1.65625 C 3.125 -2.9375 2.484375 -4.703125 2.484375 -6.953125 L 2.484375 -19.53125 L 4.75 -19.53125 L 4.75 -6.78125 C 4.75 -5.15625 5.191406 -3.90625 6.078125 -3.03125 C 6.972656 -2.15625 8.285156 -1.71875 10.015625 -1.71875 C 11.660156 -1.71875 12.925781 -2.15625 13.8125 -3.03125 C 14.707031 -3.914062 15.15625 -5.175781 15.15625 -6.8125 L 15.15625 -19.53125 Z M 17.4375 -19.53125 "/></g></g></g><g fill="#000000" fill-opacity="1"><g transform="translate(148.934664, 34.97297)"><g><path d="M 4.953125 -8.125 L 4.953125 0 L 2.6875 0 L 2.6875 -19.53125 L 8.046875 -19.53125 C 10.441406 -19.53125 12.207031 -19.070312 13.34375 -18.15625 C 14.488281 -17.238281 15.0625 -15.859375 15.0625 -14.015625 C 15.0625 -11.429688 13.753906 -9.6875 11.140625 -8.78125 L 16.4375 0 L 13.765625 0 L 9.03125 -8.125 Z M 4.953125 -10.078125 L 8.0625 -10.078125 C 9.664062 -10.078125 10.84375 -10.394531 11.59375 -11.03125 C 12.34375 -11.664062 12.71875 -12.617188 12.71875 -13.890625 C 12.71875 -15.179688 12.335938 -16.113281 11.578125 -16.6875 C 10.816406 -17.257812 9.59375 -17.546875 7.90625 -17.546875 L 4.953125 -17.546875 Z M 4.953125 -10.078125 "/></g></g></g><g fill="#000000" fill-opacity="1"><g transform="translate(80.331591, 57.467182)"><g><path d="M 8.34375 -3.15625 C 8.34375 -2.113281 7.960938 -1.300781 7.203125 -0.71875 C 6.441406 -0.132812 5.410156 0.15625 4.109375 0.15625 C 2.703125 0.15625 1.617188 -0.0195312 0.859375 -0.375 L 0.859375 -1.71875 C 1.347656 -1.507812 1.878906 -1.34375 2.453125 -1.21875 C 3.023438 -1.101562 3.597656 -1.046875 4.171875 -1.046875 C 5.085938 -1.046875 5.78125 -1.21875 6.25 -1.5625 C 6.71875 -1.914062 6.953125 -2.40625 6.953125 -3.03125 C 6.953125 -3.445312 6.867188 -3.785156 6.703125 -4.046875 C 6.535156 -4.304688 6.253906 -4.546875 5.859375 -4.765625 C 5.472656 -4.992188 4.882812 -5.25 4.09375 -5.53125 C 2.988281 -5.925781 2.195312 -6.394531 1.71875 -6.9375 C 1.25 -7.476562 1.015625 -8.1875 1.015625 -9.0625 C 1.015625 -9.976562 1.359375 -10.707031 2.046875 -11.25 C 2.734375 -11.789062 3.644531 -12.0625 4.78125 -12.0625 C 5.96875 -12.0625 7.054688 -11.84375 8.046875 -11.40625 L 7.609375 -10.203125 C 6.628906 -10.617188 5.675781 -10.828125 4.75 -10.828125 C 4.019531 -10.828125 3.445312 -10.664062 3.03125 -10.34375 C 2.625 -10.03125 2.421875 -9.597656 2.421875 -9.046875 C 2.421875 -8.628906 2.492188 -8.289062 2.640625 -8.03125 C 2.796875 -7.769531 3.050781 -7.53125 3.40625 -7.3125 C 3.769531 -7.09375 4.320312 -6.847656 5.0625 -6.578125 C 6.3125 -6.128906 7.171875 -5.648438 7.640625 -5.140625 C 8.109375 -4.640625 8.34375 -3.976562 8.34375 -3.15625 Z M 8.34375 -3.15625 "/></g></g></g><g fill="#000000" fill-opacity="1"><g transform="translate(101.062587, 57.467182)"><g><path d="M 8.265625 0 L 1.640625 0 L 1.640625 -11.890625 L 8.265625 -11.890625 L 8.265625 -10.65625 L 3.015625 -10.65625 L 3.015625 -6.828125 L 7.953125 -6.828125 L 7.953125 -5.609375 L 3.015625 -5.609375 L 3.015625 -1.234375 L 8.265625 -1.234375 Z M 8.265625 0 "/></g></g></g><g fill="#000000" fill-opacity="1"><g transform="translate(121.91552, 57.467182)"><g><path d="M 3.015625 -4.9375 L 3.015625 0 L 1.640625 0 L 1.640625 -11.890625 L 4.890625 -11.890625 C 6.347656 -11.890625 7.425781 -11.609375 8.125 -11.046875 C 8.820312 -10.492188 9.171875 -9.65625 9.171875 -8.53125 C 9.171875 -6.957031 8.375 -5.894531 6.78125 -5.34375 L 10.015625 0 L 8.375 0 L 5.5 -4.9375 Z M 3.015625 -6.125 L 4.90625 -6.125 C 5.882812 -6.125 6.601562 -6.316406 7.0625 -6.703125 C 7.519531 -7.097656 7.75 -7.679688 7.75 -8.453125 C 7.75 -9.242188 7.515625 -9.8125 7.046875 -10.15625 C 6.585938 -10.5 5.84375 -10.671875 4.8125 -10.671875 L 3.015625 -10.671875 Z M 3.015625 -6.125 "/></g></g></g><g fill="#000000" fill-opacity="1"><g transform="translate(143.800858, 57.467182)"><g><path d="M 8.421875 -11.890625 L 9.90625 -11.890625 L 5.625 0 L 4.265625 0 L 0 -11.890625 L 1.46875 -11.890625 L 4.203125 -4.203125 C 4.515625 -3.316406 4.757812 -2.457031 4.9375 -1.625 C 5.132812 -2.5 5.390625 -3.375 5.703125 -4.25 Z M 8.421875 -11.890625 "/></g></g></g><g fill="#000000" fill-opacity="1"><g transform="translate(165.30413, 57.467182)"><g><path d="M 8.265625 0 L 1.640625 0 L 1.640625 -11.890625 L 8.265625 -11.890625 L 8.265625 -10.65625 L 3.015625 -10.65625 L 3.015625 -6.828125 L 7.953125 -6.828125 L 7.953125 -5.609375 L 3.015625 -5.609375 L 3.015625 -1.234375 L 8.265625 -1.234375 Z M 8.265625 0 "/></g></g></g><path stroke-linecap="butt" transform="matrix(0.747201, 0, 0, 0.747201, 67.67944, 39.708637)" fill="none" stroke-linejoin="miter" d="M 0.000331343 2.000113 L 159.998387 2.000113 " stroke="#000000" stroke-width="4" stroke-opacity="1" stroke-miterlimit="4"/></svg>